<?xml version="1.0" encoding="UTF-8" standalone="no"?>
<!-- Created with Inkscape (http://www.inkscape.org/) -->

<svg
   xmlns:dc="http://purl.org/dc/elements/1.1/"
   xmlns:cc="http://creativecommons.org/ns#"
   xmlns:rdf="http://www.w3.org/1999/02/22-rdf-syntax-ns#"
   xmlns:svg="http://www.w3.org/2000/svg"
   xmlns="http://www.w3.org/2000/svg"
   xmlns:sodipodi="http://sodipodi.sourceforge.net/DTD/sodipodi-0.dtd"
   xmlns:inkscape="http://www.inkscape.org/namespaces/inkscape"
   width="744.09448819"
   height="1052.3622047"
   id="svg3310"
   version="1.1"
   inkscape:version="0.48.1 "
   sodipodi:docname="New document 3">
  <defs
     id="defs3312" />
  <sodipodi:namedview
     id="base"
     pagecolor="#ffffff"
     bordercolor="#666666"
     borderopacity="1.0"
     inkscape:pageopacity="0.0"
     inkscape:pageshadow="2"
     inkscape:zoom="1"
     inkscape:cx="375"
     inkscape:cy="759.7244"
     inkscape:document-units="px"
     inkscape:current-layer="layer1"
     showgrid="false"
     inkscape:window-width="1440"
     inkscape:window-height="848"
     inkscape:window-x="-8"
     inkscape:window-y="-8"
     inkscape:window-maximized="1" />
  <metadata
     id="metadata3315">
    <rdf:RDF>
      <cc:Work
         rdf:about="">
        <dc:format>image/svg+xml</dc:format>
        <dc:type
           rdf:resource="http://purl.org/dc/dcmitype/StillImage" />
        <dc:title></dc:title>
      </cc:Work>
    </rdf:RDF>
  </metadata>
  <g
     inkscape:label="Layer 1"
     inkscape:groupmode="layer"
     id="layer1">
    <path
       inkscape:connector-curvature="0"
       id="rect4108"
       d="m 120.57143,124.36218 256,0 0,256 -256,0 z"
       style="color:#000000;fill:#ffffff;fill-opacity:1;fill-rule:nonzero;stroke:none;stroke-width:12.60000038;marker:none;visibility:visible;display:inline;overflow:visible;enable-background:accumulate"
       inkscape:export-xdpi="90"
       inkscape:export-ydpi="90"
       inkscape:export-filename="D:\for-torhu\mb_icon_16x16.png" />
    <path
       inkscape:connector-curvature="0"
       id="path3313"
       d="m 215.42143,233.44558 0,33.4895"
       style="color:#000000;fill:none;stroke:#a40000;stroke-width:12.26693535;stroke-linecap:round;stroke-miterlimit:4;stroke-dasharray:none;marker:none;visibility:visible;display:inline;overflow:visible;enable-background:accumulate"
       inkscape:export-filename="D:\for-torhu\mb_icon_16x16.png"
       inkscape:export-xdpi="90"
       inkscape:export-ydpi="90" />
    <path
       style="color:#000000;fill:none;stroke:#a40000;stroke-width:12.26693535;stroke-linecap:round;stroke-miterlimit:4;stroke-dasharray:none;marker:none;visibility:visible;display:inline;overflow:visible;enable-background:accumulate"
       d="m 278.78013,233.44558 0,33.4895"
       id="path3315"
       inkscape:connector-curvature="0"
       inkscape:export-filename="D:\for-torhu\mb_icon_16x16.png"
       inkscape:export-xdpi="90"
       inkscape:export-ydpi="90" />
    <path
       d="m 141.12703,263.93978 0,-11.8027 c 0.2073,-1.0352 0.4143,-1.9669 0.6212,-2.7953 0.2073,-1.0352 0.3108,-1.9671 0.3106,-2.7954 2e-4,-0.4141 2e-4,-0.8282 0,-1.2424 2e-4,-0.6211 2e-4,-1.1388 0,-1.553 0.2073,-0.414 0.3107,-0.8282 0.3106,-1.2423 1e-4,-0.6211 1e-4,-1.1388 0,-1.553 0.2072,-1.0352 0.4143,-1.967 0.6211,-2.7955 3e-4,-1.0352 3e-4,-1.9669 0,-2.7953 3e-4,-1.0352 0.1032,-1.967 0.3107,-2.7953 2e-4,-1.0352 0.1041,-1.9671 0.3106,-2.7954 0.2073,-1.8635 0.5178,-3.7271 0.9317,-5.5908 0.4144,-1.8635 0.8285,-3.8305 1.2425,-5.9014 0.6214,-1.8634 1.1391,-3.727 1.553,-5.5907 0.4143,-1.8634 0.932,-3.7271 1.553,-5.5907 0.6213,-1.8635 1.2425,-3.727 1.8635,-5.5907 0.6214,-1.8635 1.2425,-3.7271 1.8636,-5.5908 0.6213,-1.6564 1.3461,-3.4164 2.1742,-5.2803 0.8285,-1.8633 1.6567,-3.7269 2.4848,-5.5906 1.6567,-3.5199 3.4167,-6.833 5.2801,-9.9391 1.8637,-3.1058 3.8309,-6.0047 5.9014,-8.6967 2.0707,-2.4846 4.1414,-4.7623 6.2118,-6.8332 2.0709,-2.2775 4.2451,-4.3481 6.5226,-6.2119 0.2072,2e-4 0.4143,2e-4 0.6212,0 10e-5,2e-4 0.1031,2e-4 0.3105,0 0.2073,2e-4 0.4144,-0.1031 0.6213,-0.3106 2e-4,-0.2068 2e-4,-0.4139 0,-0.6211 0.2072,1e-4 0.4142,1e-4 0.6212,0 0.2072,1e-4 0.3107,1e-4 0.3105,0 2e-4,1e-4 0.1031,1e-4 0.3106,0 2e-4,1e-4 2e-4,-0.1031 0,-0.3106 0.2073,2e-4 0.4143,2e-4 0.6212,0 2e-4,2e-4 2e-4,2e-4 0,0 0.2073,2e-4 0.4144,2e-4 0.6212,0 3e-4,-0.2069 0.1041,-0.3104 0.3107,-0.3106 0.2073,2e-4 0.4143,2e-4 0.6212,0 10e-5,-0.2069 0.1031,-0.3104 0.3106,-0.3108 0.2072,4e-4 0.4143,-0.1031 0.6212,-0.3106 0.2072,-0.2068 0.4142,-0.4139 0.6212,-0.6211 0.2072,2e-4 0.4142,2e-4 0.6212,0 1e-4,2e-4 0.1031,-0.1031 0.3105,-0.3106 0.2073,2e-4 0.4143,2e-4 0.6213,0 1e-4,2e-4 0.1031,2e-4 0.3106,0 0.2072,2e-4 0.4142,2e-4 0.6211,0 2e-4,-0.2069 0.1031,-0.3104 0.3106,-0.3106 0.2072,2e-4 0.4143,2e-4 0.6212,0 1e-4,-0.2069 0.1031,-0.3104 0.3106,-0.3106 0.2072,2e-4 0.4143,2e-4 0.6212,0 2e-4,2e-4 0.1031,2e-4 0.3106,0 0.2072,2e-4 0.4142,2e-4 0.6212,0 10e-5,2e-4 10e-5,-0.1032 0,-0.3105 0.2072,1e-4 0.4143,1e-4 0.6211,0 0.2072,1e-4 0.3108,1e-4 0.3107,0 0.2071,1e-4 0.4143,1e-4 0.6212,0 2e-4,1e-4 2e-4,1e-4 0,0 1.0355,1e-4 2.0709,0.1041 3.106,0.3105 1.0354,2e-4 2.0708,0.2073 3.106,0.6212 0.4142,0.2073 0.9318,0.4145 1.5529,0.6212 0.4143,0.2073 0.8283,0.4144 1.2424,0.6211 0.6214,0.4145 1.2425,0.7251 1.8637,0.932 0.4142,0.2072 0.8283,0.4143 1.2423,0.6211 0.6213,0.2073 1.2425,0.5179 1.8636,0.9319 0.4142,0.4142 0.8283,0.7248 1.2423,0.9317 0.4143,0.4144 0.932,0.8284 1.553,1.2423 0.4143,0.2073 0.8284,0.518 1.2424,0.9319 0.4142,0.4142 0.9319,0.8284 1.5529,1.2423 0.4144,0.4143 0.8285,0.8285 1.2425,1.2424 0.4142,0.6213 0.9319,1.1391 1.5529,1.553 0.4143,0.4144 0.8285,0.8285 1.2425,1.2424 l 20.1888,33.5445 c 0.4141,-0.414 0.8283,-0.8281 1.2423,-1.2424 0.2072,-0.621 0.4143,-1.1387 0.6213,-1.5529 0.207,-0.4141 0.4141,-0.8281 0.6211,-1.2424 0.2072,-0.6211 0.4142,-1.1387 0.6212,-1.5531 1e-4,-0.2068 0.1031,-0.3104 0.3106,-0.3106 10e-5,-0.207 10e-5,-0.414 0,-0.6212 0.2071,2e-4 0.3106,2e-4 0.3105,0 1e-4,-0.2069 1e-4,-0.414 0,-0.6211 0.2072,-0.207 0.4143,-0.4141 0.6213,-0.6213 1e-4,-0.4139 1e-4,-0.8281 0,-1.2423 0.2071,1e-4 0.4143,-0.1042 0.6213,-0.3106 1e-4,-0.2069 1e-4,-0.5175 0,-0.9318 1e-4,-0.2069 0.1031,-0.3105 0.3104,-0.3106 2e-4,-0.207 2e-4,-0.414 0,-0.6212 0.2073,2e-4 0.3108,2e-4 0.3107,0 1e-4,-0.2069 1e-4,-0.414 0,-0.6211 0.4143,-1.2423 0.932,-2.3811 1.553,-3.4166 0.6213,-1.2423 1.1389,-2.3811 1.553,-3.4166 1.2424,-2.2776 2.3813,-4.5553 3.4165,-6.8332 1.0354,-2.4846 2.1744,-4.7623 3.4167,-6.833 1.2424,-2.2775 2.4848,-4.3483 3.7271,-6.212 1.2425,-2.0704 2.4848,-4.1411 3.7271,-6.2121 0.6213,-1.035 1.2424,-2.0703 1.8637,-3.1059 0.6212,-1.0351 1.2424,-2.0703 1.8635,-3.1059 2.0707,-2.8987 4.2449,-5.3835 6.5225,-7.4544 2.0708,-2.2775 4.3485,-4.141 6.8331,-5.5907 2.4848,-1.4492 5.0733,-2.5881 7.7649,-3.4165 2.6919,-0.8281 5.4873,-1.2422 8.3862,-1.2424 0.2071,2e-4 0.4142,2e-4 0.6212,0 0,2e-4 0,2e-4 0,0 0,2e-4 0,2e-4 0,0 0,2e-4 0,2e-4 0,0 0.2071,2e-4 0.3107,2e-4 0.3107,0 0,2e-4 0,2e-4 0,0 0.207,0.2072 0.4141,0.4143 0.6211,0.6211 10e-5,2e-4 10e-5,2e-4 0,0 10e-5,2e-4 10e-5,2e-4 0,0 10e-5,2e-4 10e-5,2e-4 0,0 0.2071,2e-4 0.3106,2e-4 0.3106,0 0,2e-4 0,2e-4 0,0 0.2071,2e-4 0.4141,2e-4 0.6212,0 0,2e-4 0.1042,2e-4 0.3105,0 0.2072,2e-4 0.4143,2e-4 0.6213,0 0,2e-4 0.1031,2e-4 0.3106,0 0.2071,2e-4 0.4141,2e-4 0.6211,0 10e-5,2e-4 10e-5,2e-4 0,0 10e-5,2e-4 10e-5,2e-4 0,0 10e-5,2e-4 10e-5,2e-4 0,0 0.2072,0.2073 0.4143,0.3108 0.6212,0.3106 0,2e-4 0,2e-4 0,0 0,2e-4 0,2e-4 0,0 0,2e-4 0,2e-4 0,0 0.2071,2e-4 0.4142,2e-4 0.6213,0 0,2e-4 0,2e-4 0,0 0,2e-4 0,2e-4 0,0 0,2e-4 0,2e-4 0,0 0.207,2e-4 0.3106,2e-4 0.3105,0 10e-5,2e-4 10e-5,2e-4 0,0 0.2071,2e-4 0.4142,2e-4 0.6212,0 0,2e-4 0,2e-4 0,0 0.2071,2e-4 0.4141,2e-4 0.6213,0 0,2e-4 0,2e-4 0,0 0.2071,2e-4 0.4142,2e-4 0.6212,0 10e-5,2e-4 10e-5,2e-4 0,0 10e-5,2e-4 10e-5,2e-4 0,0 10e-5,2e-4 10e-5,2e-4 0,0 0.207,2e-4 0.3106,2e-4 0.3106,0 0,2e-4 0,2e-4 0,0 3.1059,1.2426 6.1083,2.7956 9.0073,4.659 2.6918,1.8638 5.2801,4.0379 7.7648,6.5225 2.4849,2.6921 4.7626,5.6945 6.8332,9.0073 2.0706,3.1063 3.9342,6.6263 5.5907,10.5604 1.2425,2.692 2.3813,5.5909 3.4166,8.6966 1.0354,2.8992 1.9671,5.7981 2.7954,8.6968 0.414,1.4496 0.8282,2.899 1.2424,4.3484 0.4141,1.4496 0.8281,2.899 1.2424,4.3483 0.4142,1.4495 0.8282,3.0025 1.2424,4.6589 0.207,1.4496 0.4141,2.8992 0.6212,4.3484 0.6211,2.8991 1.1388,5.9016 1.553,9.0074 0.207,2.8989 0.4141,5.9013 0.6211,9.0073 0,0.6213 0,1.2424 0,1.8636 0,0.6212 0.1031,1.1389 0.3106,1.5529 0,0.6212 0,1.2425 0,1.8636 0,0.4142 0,0.8283 0,1.2424 0,0.8284 0,1.7602 0,2.7954 0.2071,0.8284 0.4141,1.7601 0.6212,2.7953 0,0.4143 0,0.9319 0,1.553 0,0.4142 0,0.8284 0,1.2423 0,0.4143 0,0.932 0,1.553 0,0.4143 0.1031,0.8285 0.3106,1.2425 0,0.8283 0,1.5531 0,2.1741 0,0.4143 0,0.8284 0,1.2424 0,0.4142 0,0.9319 0,1.553 0,0.4142 0,0.8284 0,1.2424 0,0.2072 0,0.5177 0,0.9317 0,0.2072 0,0.4143 0,0.6213 0,0.2072 0,0.5177 0,0.9317 0,0.2073 0,0.4144 0,0.6213 0,0.4142 0,0.9319 0,1.553 0,0.4142 0,0.8283 0,1.2424 -0.207,0.8283 -0.3106,1.553 -0.3106,2.1742 0,0.4141 0,0.8283 0,1.2423 0,0.4142 0,0.9319 0,1.553 0,0.4141 0,0.8283 0,1.2423 -0.2071,0.8284 -0.4141,1.7603 -0.6212,2.7955 0,0.8284 0,1.7601 0,2.7953 0,0.4142 0,0.9319 0,1.5529 0,0.4143 0,0.8284 0,1.2425 -0.2071,0.4141 -0.3106,0.8283 -0.3106,1.2423 0,0.2073 0,0.5178 0,0.9319 -0.207,0.4142 -0.3105,0.9318 -0.3105,1.553 0,0.4142 0,0.8284 0,1.2424 0,0.4142 0,0.8283 0,1.2424 0,0.4141 0,0.8283 0,1.2423 0,0.4142 0,0.9319 0,1.553 0,0.4141 0,0.8283 0,1.2423 0,0.4143 0,0.9319 0,1.5531 0,0.4143 -0.1031,0.8283 -0.3106,1.2424 0,0.4142 0,0.9318 0,1.5529 0,0.4143 0,0.8284 0,1.2425 0,0.4141 0,0.8283 0,1.2423 -0.2071,0.4142 -0.4142,0.7248 -0.6213,0.9318 0,0.2072 0,0.4142 0,0.6212 0,0.2071 -0.1031,0.4142 -0.3106,0.6211 0,0.4143 0,0.7249 0,0.9319 0,0.207 0,0.4141 0,0.6211 0,0.4144 0,0.9319 0,1.5532 -0.207,0.4141 -0.414,0.8283 -0.6211,1.2423 -0.4142,2.6919 -0.9319,5.4872 -1.553,8.3861 -0.6213,2.6919 -1.2424,5.3836 -1.8637,8.0754 -0.4141,1.2426 -0.7247,2.4849 -0.9317,3.7273 -0.4142,1.2423 -0.8283,2.4848 -1.2425,3.7272 -0.414,1.4494 -0.8282,2.7953 -1.2423,4.0377 -0.6211,1.2424 -1.1388,2.4848 -1.553,3.7272 -0.8282,2.6918 -1.76,5.1767 -2.7953,7.4543 -1.0354,2.2777 -2.1743,4.3483 -3.4166,6.2119 -1.2424,1.8637 -2.5883,3.6237 -4.0377,5.2802 -1.4494,1.4494 -2.8989,2.7953 -4.3485,4.0377 1e-4,0 1e-4,0.1031 0,0.3106 -0.207,0 -0.3105,0 -0.3105,0 -0.2071,0.2071 -0.3106,0.4142 -0.3106,0.6211 -0.2071,10e-5 -0.4142,10e-5 -0.6213,0 -0.2069,10e-5 -0.3105,0.1042 -0.3106,0.3106 -0.207,0 -0.3105,0 -0.3105,0 -0.2071,0.2072 -0.4141,0.4143 -0.6212,0.6214 -0.2071,0 -0.4142,0 -0.6212,0 1e-4,0 1e-4,0.1031 0,0.3106 -0.207,0 -0.3106,0 -0.3106,0 -0.207,0.2071 -0.4141,0.414 -0.6212,0.6211 -0.2071,0 -0.4141,0 -0.6212,0 -0.4141,0.2071 -0.7247,0.3106 -0.9317,0.3106 -0.4142,0 -0.7247,0 -0.9318,0 -0.2071,0.2071 -0.4141,0.4142 -0.6212,0.6213 -0.2071,0.207 -0.4142,0.3106 -0.6212,0.3105 -0.4141,0.207 -0.7248,0.4141 -0.9319,0.6212 -0.4141,0 -0.7246,0 -0.9318,0 -0.207,0 -0.4141,0 -0.6212,0 -0.207,0 -0.4141,0 -0.6212,0 -0.414,0 -0.7246,0 -0.9317,0 -0.4142,0 -0.7247,0 -0.9319,0 l -134.1778,0 c -2.2775,-2.2776 -4.3482,-4.5555 -6.2118,-6.8332 -1.8636,-2.2776 -3.7272,-4.6588 -5.5909,-7.1437 -1.8634,-2.6918 -3.5199,-5.4871 -4.9696,-8.3861 -1.6563,-2.8989 -3.2093,-6.0049 -4.6589,-9.3179 -1.2421,-3.313 -2.3811,-6.626 -3.4166,-9.9391 -1.035,-3.313 -1.967,-6.8331 -2.7954,-10.5604 -0.8281,-3.727 -1.4492,-7.4542 -1.8636,-11.1815 -0.621,-3.9341 -1.035,-7.9718 -1.2423,-12.1132 l -0.6212,0 0,0 0,0 m 25.469,2.1742 c 0.2073,0.8283 0.4143,1.553 0.6212,2.1742 0.2072,0.6212 0.3107,1.1389 0.3106,1.553 1e-4,0.4142 0.1031,0.9318 0.3106,1.5529 1e-4,0.4143 0.1031,0.8283 0.3105,1.2424 0.2073,0.8284 0.4144,1.5531 0.6213,2.1742 2e-4,0.4141 0.1041,0.8283 0.3106,1.2423 0.2072,0.4143 0.4142,0.8283 0.6211,1.2424 0.2073,0.4144 0.4144,0.725 0.6212,0.9319 2e-4,0 2e-4,0 0,0 2e-4,0 2e-4,0 0,0 0.2072,0 0.3108,0 0.3106,0 2e-4,0 2e-4,0 0,0 2e-4,0 2e-4,0 0,0 2e-4,0 2e-4,0 0,0 0.2072,0.2071 0.4143,0.4142 0.6212,0.6213 2e-4,0 2e-4,0 0,0 2e-4,0 2e-4,0 0,0 2e-4,0 2e-4,0 0,0 2e-4,0 0.1031,0.1031 0.3106,0.3105 2e-4,10e-5 2e-4,10e-5 0,0 2e-4,0.2072 0.1031,0.4142 0.3106,0.6212 2e-4,0 2e-4,0 0,0 2e-4,0 2e-4,0 0,0 2e-4,0 2e-4,0 0,0 0.2072,0.2071 0.4143,0.3106 0.6212,0.3106 1e-4,0 1e-4,0 0,0 1e-4,0 1e-4,0 0,0 1e-4,0 1e-4,0 0,0 1e-4,0 1e-4,0 0,0 1e-4,0 1e-4,0 0,0 1e-4,0 1e-4,0 0,0 1e-4,0 1e-4,0 0,0 0.2072,0.2071 0.3107,0.4142 0.3105,0.6211 2e-4,2e-4 2e-4,2e-4 0,0 2e-4,2e-4 2e-4,2e-4 0,0 2e-4,2e-4 2e-4,2e-4 0,0 2e-4,2e-4 0.1031,0.1032 0.3106,0.3107 3e-4,1e-4 3e-4,1e-4 0,0 3e-4,0.2071 0.1032,0.4141 0.3107,0.6212 2e-4,0 2e-4,0 0,0 2e-4,0 0.1031,0 0.3106,0 1e-4,0 1e-4,0 0,0 0.2072,0.2071 0.3107,0.3106 0.3106,0.3106 1e-4,0 1e-4,0 0,0 0.2072,0.2071 0.4143,0.4142 0.6211,0.6211 2e-4,0.2072 2e-4,0.3106 0,0.3106 2e-4,0 2e-4,0 0,0 2e-4,0 2e-4,0 0,0 0.2074,0 0.3109,0 0.3106,0 3e-4,0 3e-4,0 0,0 l 127.6555,0 c 2.0706,-0.414 3.9342,-0.9317 5.5906,-1.5529 1.6566,-0.8282 3.2097,-1.8635 4.6591,-3.106 1.4494,-1.0353 2.6918,-2.3812 3.7271,-4.0378 1.0353,-1.6564 2.0706,-3.52 3.1059,-5.5907 0.8283,-1.8636 1.6566,-3.7271 2.4849,-5.5907 0.8282,-2.0706 1.4494,-4.1412 1.8635,-6.2121 0.6212,-2.0704 1.1389,-4.2446 1.553,-6.5224 0.207,-2.2777 0.3106,-4.5554 0.3106,-6.8332 0,1e-4 0,1e-4 0,0 0,-0.2069 0,-0.3105 0,-0.3106 0,1e-4 0,1e-4 0,0 0,-0.207 0,-0.3105 0,-0.3106 0,1e-4 0,-0.1031 0,-0.3105 0,-0.207 0,-0.4141 0,-0.6212 0,1e-4 0,-0.1031 0,-0.3106 0,-0.207 0,-0.4141 0,-0.6212 0,0 0,-0.1031 0,-0.3106 0,-0.207 0,-0.414 0,-0.6212 0,-0.207 0,-0.4141 0,-0.6211 0,-0.4141 0,-0.8282 0,-1.2426 0,-0.207 0,-0.4139 0,-0.6211 0,-0.4141 0,-0.8282 0,-1.2425 0,1e-4 0,-0.1031 0,-0.3105 0,-0.207 0,-0.414 0,-0.6212 0,1e-4 0,-0.1031 0,-0.3106 0,-0.207 -0.1031,-0.414 -0.3106,-0.6212 1e-4,1e-4 1e-4,1e-4 0,0 1e-4,1e-4 1e-4,-0.1031 0,-0.3106 1e-4,1e-4 1e-4,1e-4 0,0 1e-4,-0.2069 1e-4,-0.414 0,-0.6212 1e-4,1e-4 1e-4,1e-4 0,0 1e-4,-0.207 1e-4,-0.3105 0,-0.3106 -0.207,-2.6917 -0.5176,-5.28 -0.9318,-7.765 -0.4141,-2.4846 -1.0353,-4.8657 -1.8636,-7.1437 -0.414,-1.2422 -0.8282,-2.4846 -1.2423,-3.7271 -0.4143,-1.2423 -0.9319,-2.4846 -1.5531,-3.7271 -0.4141,-1.2422 -0.9317,-2.3812 -1.553,-3.4166 -0.6211,-1.2423 -1.2423,-2.4846 -1.8635,-3.7272 -1.2424,-2.0704 -2.5883,-3.934 -4.0377,-5.5907 -1.4495,-1.6564 -3.0025,-3.2094 -4.659,-4.6589 -1.6565,-1.0352 -3.4166,-1.8635 -5.2801,-2.4848 -1.8636,-0.8281 -3.8307,-1.3459 -5.9014,-1.5531 -2.2776,2e-4 -4.4518,0.3107 -6.5226,0.9318 -2.2776,0.6215 -4.3483,1.5532 -6.2118,2.7955 -1.8635,1.0354 -3.5201,2.4849 -4.9697,4.3482 -1.6564,1.6566 -3.1058,3.6239 -4.3482,5.9014 -0.6212,1.2426 -1.2424,2.4849 -1.8636,3.7272 -0.6213,1.0354 -1.2425,2.1744 -1.8637,3.4166 -0.4141,1.2425 -0.9317,2.5884 -1.553,4.0377 -0.6211,1.2425 -1.2422,2.4849 -1.8636,3.7271 -1.0351,2.485 -2.0705,5.0733 -3.1059,7.765 -1.2422,2.4848 -2.3813,5.1768 -3.4166,8.0755 1e-4,1e-4 1e-4,0.1031 0,0.3106 1e-4,1e-4 1e-4,1e-4 0,0 1e-4,0.2072 1e-4,0.4142 0,0.6212 1e-4,1e-4 1e-4,1e-4 0,0 1e-4,1e-4 1e-4,1e-4 0,0 1e-4,1e-4 1e-4,1e-4 0,0 1e-4,1e-4 1e-4,1e-4 0,0 1e-4,1e-4 1e-4,1e-4 0,0 1e-4,1e-4 1e-4,1e-4 0,0 1e-4,1e-4 -0.1032,1e-4 -0.3106,0 0,0.2071 0,0.3107 0,0.3106 0,1e-4 0,1e-4 0,0 0,1e-4 0,1e-4 0,0 0,1e-4 0,1e-4 0,0 0,0.2072 0,0.4142 0,0.6212 0,1e-4 -0.1031,1e-4 -0.3106,0 10e-5,0.2072 10e-5,0.3106 0,0.3105 10e-5,1e-4 10e-5,1e-4 0,0 10e-5,0.2072 10e-5,0.4143 0,0.6212 -0.2069,0.2072 -0.414,0.3108 -0.6212,0.3107 10e-5,0.4142 10e-5,0.8283 0,1.2423 10e-5,0.2073 10e-5,0.3108 0,0.3106 10e-5,2e-4 10e-5,0.1042 0,0.3107 10e-5,2e-4 10e-5,2e-4 0,0 -0.207,0.2072 -0.3105,0.4142 -0.3106,0.6212 -0.207,1e-4 -0.3105,1e-4 -0.3105,0 0,1e-4 0,0.1031 0,0.3106 0,1e-4 0,1e-4 0,0 0,1e-4 0,0.1031 0,0.3106 0,10e-5 -0.1031,10e-5 -0.3106,0 1e-4,10e-5 1e-4,0.1031 0,0.3106 1e-4,1e-4 1e-4,1e-4 0,0 1e-4,1e-4 1e-4,0.1031 0,0.3106 1e-4,0 1e-4,0 0,0 -0.207,0.2071 -0.3105,0.4142 -0.3106,0.6212 -0.207,1e-4 -0.3106,1e-4 -0.3107,0 10e-5,0.4142 10e-5,0.7248 0,0.9318 10e-5,0.2071 10e-5,0.3106 0,0.3105 10e-5,0.2072 10e-5,0.4143 0,0.6212 -0.2069,0.2072 -0.414,0.3108 -0.6211,0.3106 -0.2071,0.4142 -0.414,0.8284 -0.6212,1.2424 -0.207,0.4143 -0.4141,0.8283 -0.6212,1.2423 -0.207,2e-4 -0.3106,0.1032 -0.3106,0.3107 -0.207,1e-4 -0.414,0.1031 -0.6212,0.3106 -0.2069,0.2072 -0.3105,0.4141 -0.3106,0.6211 -0.207,1e-4 -0.414,1e-4 -0.6211,0 -0.2071,0.2072 -0.4141,0.4143 -0.6212,0.6212 -0.4141,0.2073 -0.7247,0.3109 -0.9318,0.3106 -0.4141,0.2073 -0.7248,0.4143 -0.9319,0.6213 -0.4141,1e-4 -0.7247,1e-4 -0.9318,0 l -1.5529,0.9318 c 0.207,1e-4 0.3106,1e-4 0.3106,0 0,1e-4 0,1e-4 0,0 0,1e-4 0,1e-4 0,0 -0.2071,1e-4 -0.4141,1e-4 -0.6213,0 2e-4,1e-4 2e-4,1e-4 0,0 2e-4,1e-4 2e-4,1e-4 0,0 2e-4,1e-4 2e-4,1e-4 0,0 -0.2069,-0.207 -0.414,-0.414 -0.6212,-0.6212 1e-4,1e-4 1e-4,1e-4 0,0 1e-4,1e-4 1e-4,1e-4 0,0 1e-4,1e-4 1e-4,1e-4 0,0 1e-4,1e-4 -0.1031,1e-4 -0.3106,0 1e-4,1e-4 1e-4,1e-4 0,0 1e-4,1e-4 1e-4,1e-4 0,0 1e-4,1e-4 1e-4,1e-4 0,0 1e-4,1e-4 -0.1031,1e-4 -0.3105,0 1e-4,1e-4 1e-4,1e-4 0,0 1e-4,1e-4 1e-4,1e-4 0,0 1e-4,1e-4 1e-4,1e-4 0,0 -0.207,1e-4 -0.414,-0.1042 -0.6212,-0.3106 1e-4,1e-4 1e-4,1e-4 0,0 1e-4,1e-4 1e-4,1e-4 0,0 1e-4,1e-4 1e-4,1e-4 0,0 1e-4,-0.207 -0.1031,-0.3105 -0.3106,-0.3105 1e-4,0 1e-4,0 0,0 -0.207,-0.207 -0.3106,-0.3105 -0.3107,-0.3108 1e-4,3e-4 1e-4,3e-4 0,0 1e-4,3e-4 -0.1031,3e-4 -0.3105,0 1e-4,3e-4 1e-4,3e-4 0,0 1e-4,3e-4 1e-4,3e-4 0,0 1e-4,3e-4 1e-4,3e-4 0,0 -0.2069,3e-4 -0.414,-0.1031 -0.6212,-0.3106 1e-4,1e-4 1e-4,1e-4 0,0 1e-4,1e-4 1e-4,1e-4 0,0 1e-4,1e-4 1e-4,1e-4 0,0 1e-4,-0.2069 -0.1031,-0.3105 -0.3106,-0.3106 1e-4,1e-4 1e-4,1e-4 0,0 -0.207,-0.207 -0.3105,-0.3105 -0.3106,-0.3106 1e-4,1e-4 1e-4,1e-4 0,0 -0.207,1e-4 -0.414,1e-4 -0.6211,0 1e-4,1e-4 1e-4,-0.1031 0,-0.3105 -0.207,-0.207 -0.4141,-0.4141 -0.6213,-0.6212 1e-4,1e-4 1e-4,1e-4 0,0 1e-4,1e-4 -0.1042,1e-4 -0.3107,0 2e-4,1e-4 2e-4,1e-4 0,0 2e-4,1e-4 2e-4,1e-4 0,0 2e-4,1e-4 2e-4,-0.1031 0,-0.3107 -0.2069,-0.2069 -0.4138,-0.414 -0.6211,-0.6211 -0.4141,-0.414 -0.7247,-0.8282 -0.9319,-1.2424 -0.4139,-0.621 -0.7245,-1.1387 -0.9317,-1.553 -0.414,-0.4139 -0.7247,-0.8281 -0.9317,-1.2423 -0.4141,-0.6212 -0.7247,-1.1388 -0.9319,-1.553 1e-4,1e-4 1e-4,1e-4 0,0 -0.207,-0.207 -0.414,-0.4141 -0.6211,-0.6211 1e-4,-0.207 1e-4,-0.3105 0,-0.3107 -0.207,-0.2069 -0.3105,-0.3105 -0.3106,-0.3107 1e-4,-0.2068 1e-4,-0.3105 0,-0.3106 -0.207,1e-4 -0.3105,-0.1031 -0.3106,-0.3106 1e-4,-0.207 -0.1031,-0.4139 -0.3106,-0.6211 -0.207,-0.207 -0.3106,-0.4141 -0.3107,-0.6213 -0.2069,2e-4 -0.3104,-0.1031 -0.3105,-0.3106 -0.2069,-0.4139 -0.414,-0.8281 -0.6212,-1.2423 1e-4,1e-4 1e-4,1e-4 0,0 -0.207,-0.207 -0.414,-0.4141 -0.6212,-0.6212 1e-4,-0.2069 1e-4,-0.3105 0,-0.3106 -0.207,-0.2069 -0.3104,-0.3105 -0.3105,-0.3106 -0.6212,-1.0351 -1.1389,-1.967 -1.553,-2.7953 -0.6211,-0.8282 -1.2425,-1.7599 -1.8637,-2.7955 -0.6211,-0.8281 -1.2422,-1.6563 -1.8636,-2.4847 -0.8282,-1.0352 -1.5528,-1.967 -2.1742,-2.7953 -0.8281,-1.2423 -1.6564,-2.3812 -2.4847,-3.4166 -1.0351,-1.2423 -1.967,-2.3812 -2.7954,-3.4166 -0.414,-0.6211 -0.8282,-1.1387 -1.2425,-1.553 -0.621,-0.621 -1.1387,-1.2423 -1.5529,-1.8636 -1.4493,-1.4493 -2.8988,-2.6917 -4.3483,-3.7272 -1.6564,-1.2422 -3.2095,-2.2776 -4.659,-3.1059 -1.6564,-0.8282 -3.2094,-1.4493 -4.6589,-1.8636 -1.6564,-0.414 -3.313,-0.6211 -4.9696,-0.6212 -0.2069,1e-4 -0.3104,1e-4 -0.3106,0 -0.2069,1e-4 -0.414,1e-4 -0.6212,0 -0.2069,1e-4 -0.414,1e-4 -0.6212,0 -0.2069,1e-4 -0.4139,1e-4 -0.6211,0 -0.207,1e-4 -0.4141,1e-4 -0.6212,0 -0.207,1e-4 -0.414,1e-4 -0.6213,0 -0.2068,1e-4 -0.4139,1e-4 -0.6211,0 -0.207,1e-4 -0.414,1e-4 -0.6212,0 2e-4,1e-4 2e-4,0.1031 0,0.3106 2e-4,10e-5 -0.1031,10e-5 -0.3106,0 2e-4,10e-5 2e-4,0.1031 0,0.3106 2e-4,1e-4 2e-4,1e-4 0,0 2e-4,1e-4 2e-4,1e-4 0,0 -0.2069,1e-4 -0.414,1e-4 -0.6212,0 1e-4,1e-4 1e-4,1e-4 0,0 1e-4,1e-4 1e-4,1e-4 0,0 1e-4,1e-4 1e-4,1e-4 0,0 -0.2069,1e-4 -0.414,1e-4 -0.6212,0 2e-4,1e-4 2e-4,1e-4 0,0 2e-4,1e-4 -0.1042,1e-4 -0.3107,0 3e-4,1e-4 3e-4,1e-4 0,0 3e-4,1e-4 3e-4,1e-4 0,0 3e-4,1e-4 3e-4,1e-4 0,0 -0.2068,1e-4 -0.4138,1e-4 -0.6211,0 1e-4,1e-4 1e-4,0.1031 0,0.3107 1e-4,1e-4 -0.1031,1e-4 -0.3106,0 1e-4,1e-4 1e-4,1e-4 0,0 1e-4,1e-4 1e-4,1e-4 0,0 1e-4,1e-4 1e-4,1e-4 0,0 -0.207,1e-4 -0.414,1e-4 -0.6213,0 -0.621,0.4142 -1.2421,0.8283 -1.8635,1.2423 -0.6211,0.4143 -1.2422,0.8284 -1.8635,1.2424 -0.4141,0.6213 -0.9317,1.2424 -1.553,1.8635 -0.621,0.6215 -1.2422,1.2426 -1.8636,1.8637 -1.2422,1.4496 -2.3811,3.1061 -3.4166,4.9694 -1.2423,1.6567 -2.3811,3.4167 -3.4166,5.2803 -0.4139,0.6213 -0.7245,1.346 -0.9317,2.1742 -0.414,0.6212 -0.8281,1.2424 -1.2424,1.8635 -0.621,1.4496 -1.2422,2.899 -1.8637,4.3484 -0.621,1.2425 -1.1387,2.4848 -1.5529,3.7271 -0.414,1.0355 -0.7246,2.0707 -0.9319,3.1059 -0.4139,1.0355 -0.8281,2.0708 -1.2423,3.1062 -0.2069,1.0353 -0.5175,2.0706 -0.9318,3.1059 -0.4139,1.0354 -0.7245,2.0707 -0.9318,3.1059 -0.2069,0.8283 -0.3104,1.6565 -0.3105,2.4847 -0.207,0.8284 -0.4141,1.5532 -0.6212,2.1743 -0.2069,0.8283 -0.3104,1.6565 -0.3106,2.4847 -0.2069,0.8283 -0.414,1.5531 -0.6212,2.1742 1e-4,0.4142 1e-4,0.8283 0,1.2424 1e-4,0.4141 -0.1031,0.8283 -0.3106,1.2423 1e-4,0.4143 1e-4,0.8284 0,1.2425 1e-4,0.2072 1e-4,0.5178 0,0.9318 1e-4,0.4142 1e-4,0.8283 0,1.2424 1e-4,0.2072 -0.1042,0.5177 -0.3106,0.9317 2e-4,0.4143 2e-4,0.8284 0,1.2425 2e-4,0.2071 2e-4,0.5177 0,0.9317 l -0.6212,2.1742 0,0 0,0 0,0"
       style="font-size:278.68029785px;font-style:normal;font-variant:normal;font-weight:normal;font-stretch:normal;text-indent:0;text-align:center;text-decoration:none;line-height:100%;letter-spacing:normal;word-spacing:normal;text-transform:none;direction:ltr;block-progression:tb;writing-mode:lr-tb;text-anchor:middle;color:#000000;fill:#a40000;stroke:none;stroke-width:12.60000038;marker:none;visibility:visible;font-family:Abbey Medium Extended;-inkscape-font-specification:Abbey Medium Extended"
       id="path4115"
       inkscape:connector-curvature="0"
       inkscape:export-filename="D:\for-torhu\mb_icon_16x16.png"
       inkscape:export-xdpi="90"
       inkscape:export-ydpi="90" />
    <path
       d="m 293.56043,303.27438 c 1.7239,0.3694 3.3863,0.7388 4.9872,1.1082 1.7237,0.3694 3.3861,0.862 4.9871,1.4776 0.7385,0.2464 1.4773,0.5543 2.2164,0.9235 0.8617,0.2465 1.6622,0.5542 2.4011,0.9236 0.7386,0.3695 1.4774,0.7388 2.2165,1.1082 0.8617,0.3694 1.6621,0.7389 2.4012,1.1083 1.3542,0.8619 2.5856,1.7239 3.6941,2.5858 1.2311,0.862 2.401,1.7856 3.5092,2.7706 1.1082,0.862 2.0932,1.8471 2.9553,2.9553 0.8619,0.9851 1.6007,1.9702 2.2165,2.9553 -1e-4,0.1231 -1e-4,0.2463 0,0.3693 -1e-4,2e-4 -1e-4,2e-4 0,0 -1e-4,2e-4 -1e-4,2e-4 0,0 -1e-4,2e-4 -1e-4,2e-4 0,0 -1e-4,0.1232 -1e-4,0.1848 0,0.1847 0.123,1e-4 0.2462,1e-4 0.3694,0 -2e-4,0.1232 -2e-4,0.2463 0,0.3694 -2e-4,0 -2e-4,0 0,0 -2e-4,0 -2e-4,0 0,0 -2e-4,0 -2e-4,0 0,0 -2e-4,0.1232 -2e-4,0.1849 0,0.1848 -2e-4,1e-4 -2e-4,1e-4 0,0 -2e-4,0.1231 -2e-4,0.2463 0,0.3694 -2e-4,0 -2e-4,0 0,0 -2e-4,0 -2e-4,0 0,0 -2e-4,0 0.062,0 0.1848,0 -10e-5,0.1232 -10e-5,0.2463 0,0.3694 -10e-5,10e-5 -10e-5,10e-5 0,0 -10e-5,10e-5 -10e-5,10e-5 0,0 -10e-5,10e-5 -10e-5,10e-5 0,0 -10e-5,0.1231 -10e-5,0.1847 0,0.1846 -10e-5,1e-4 -10e-5,1e-4 0,0 -10e-5,0.1233 -10e-5,0.2463 0,0.3695 -10e-5,0 -10e-5,0.062 0,0.1847 -10e-5,0.1232 -10e-5,0.2463 0,0.3694 -10e-5,10e-5 -10e-5,0.062 0,0.1847 -10e-5,0.1232 -10e-5,0.2463 0,0.3694 -10e-5,10e-5 -10e-5,10e-5 0,0 -10e-5,10e-5 -10e-5,10e-5 0,0 0.1228,10e-5 0.246,10e-5 0.3694,0 -3e-4,0.1232 -3e-4,0.2463 0,0.3694 -3e-4,0 -3e-4,0 0,0 -3e-4,0 -3e-4,0 0,0 -3e-4,0 0.062,0 0.1847,0 -3e-4,0.1232 -3e-4,0.1848 0,0.1848 -3e-4,0 -3e-4,0 0,0 l 0,46.1761 c -0.2465,0.7388 -0.5542,1.416 -0.9235,2.0317 -0.2466,0.4925 -0.5544,0.9852 -0.9236,1.4776 -0.4927,0.4925 -1.0469,0.9853 -1.6623,1.4778 -0.6159,0.3692 -1.2931,0.7388 -2.0318,1.108 -0.6158,0.3696 -1.2932,0.6774 -2.0317,0.9237 -0.7391,0.2462 -1.5394,0.4925 -2.4012,0.7388 -0.3695,0.1231 -0.739,0.2462 -1.1082,0.3694 -0.3696,0 -0.739,0.062 -1.1082,0.1846 -0.3696,0 -0.8006,0.062 -1.2929,0.1848 -0.3697,0 -0.7391,0 -1.1083,0 -0.1234,0 -0.2465,0 -0.3694,0 -0.1233,0 -0.1849,0 -0.1847,0 -0.1233,0 -0.2464,0 -0.3695,0 -0.1232,0 -0.1848,0 -0.1846,0 -0.1234,0 -0.2465,0 -0.3696,0 -0.1232,0 -0.1847,0 -0.1846,0 -1e-4,0 -0.062,0 -0.1846,0 -2e-4,0 -2e-4,0 0,0 -2e-4,0 -0.062,0 -0.1847,0 -3e-4,0 -3e-4,0 0,0 -3e-4,0 -0.062,0 -0.1849,0 -10e-5,0 -10e-5,0 0,0 -0.1232,0 -0.2463,0 -0.3692,0 -2e-4,0 -2e-4,0 0,0 -0.1234,0 -0.185,0 -0.1848,0 -2e-4,0 -2e-4,0 0,0 -0.1232,0 -0.2464,0 -0.3694,0 -0.1233,0 -0.1849,0 -0.1848,0 -0.1232,0 -0.2464,0 -0.3692,0 -0.1235,0 -0.185,0 -0.1848,0 -0.1233,0 -0.2465,0 -0.3694,0 -0.1233,0 -0.1849,0 -0.1846,0 -0.1235,0 -0.2465,0 -0.3695,0 -2e-4,0 -2e-4,-0.062 0,-0.1848 -2e-4,0 -0.062,0 -0.1847,0 -10e-5,0 -10e-5,0 0,0 -0.1233,0 -0.2464,0 -0.3695,0 -1e-4,0 -1e-4,0 0,0 -1e-4,0 -0.062,0 -0.1846,0 -2e-4,0 -2e-4,0 0,0 -2e-4,0 -0.062,0 -0.1847,0 -1e-4,0 -1e-4,-0.062 0,-0.1846 -1e-4,0 -0.062,0 -0.1847,0 -3e-4,0 -3e-4,0 0,0 -0.1234,0 -0.2465,0 -0.3694,0 -0.1234,0 -0.2465,0 -0.3694,0 -0.2465,-0.1232 -0.4928,-0.1846 -0.7388,-0.1846 -0.2465,-0.1232 -0.4928,-0.1848 -0.7388,-0.1848 -0.2465,-0.1231 -0.5543,-0.1848 -0.9237,-0.1848 -0.2463,-0.1232 -0.4926,-0.2461 -0.7388,-0.3694 -0.2463,-0.123 -0.5543,-0.2463 -0.9236,-0.3694 -0.2464,-0.1232 -0.4926,-0.2461 -0.7388,-0.3693 -0.2464,-0.1231 -0.4926,-0.2464 -0.7388,-0.3696 -0.2464,-0.1229 -0.431,-0.2462 -0.554,-0.3692 -0.1233,-0.1233 -0.2464,-0.1847 -0.3694,-0.1847 -0.1233,-0.1232 -0.1849,-0.2463 -0.1848,-0.3695 -0.1232,-0.1232 -0.2464,-0.2463 -0.3694,-0.3694 -0.1233,-0.1231 -0.1848,-0.2463 -0.1847,-0.3694 -0.1232,-0.1232 -0.2464,-0.2463 -0.3693,-0.3694 -0.1233,-0.1231 -0.185,-0.2463 -0.1849,-0.3694 -0.1232,-0.1232 -0.2464,-0.2462 -0.3692,-0.3694 -2e-4,-0.1232 -2e-4,-0.2463 0,-0.3695 -2e-4,0 -0.062,0 -0.1847,0 -3e-4,-0.1231 -3e-4,-0.1847 0,-0.1847 -0.1233,-0.123 -0.2465,-0.1846 -0.3695,-0.1846 -10e-5,-0.1232 -10e-5,-0.1849 0,-0.1849 -10e-5,-0.1229 -10e-5,-0.2462 0,-0.3693 -10e-5,-0.1232 -10e-5,-0.2463 0,-0.3695 -10e-5,2e-4 -10e-5,2e-4 0,0 -10e-5,2e-4 -10e-5,-0.062 0,-0.1846 -0.1233,0 -0.1848,0 -0.1846,0 -2e-4,-0.1232 -2e-4,-0.1846 0,-0.1846 -2e-4,0 -2e-4,0 0,0 -2e-4,-0.1233 -2e-4,-0.2464 0,-0.3696 -0.1234,2e-4 -0.2465,2e-4 -0.3696,0 -10e-5,2e-4 -10e-5,-0.062 0,-0.1846 -10e-5,0 -10e-5,0 0,0 -10e-5,-0.1232 -10e-5,-0.2462 0,-0.3694 l -1.6623,-49.3162 c -0.2464,-0.4925 -0.5543,-0.9233 -0.9235,-1.2928 -0.2464,-0.4925 -0.4927,-0.9236 -0.7387,-1.293 -0.3697,-0.3694 -0.8006,-0.7388 -1.293,-1.1083 -0.3695,-0.3694 -0.8621,-0.6771 -1.4777,-0.9235 -0.4926,-0.2462 -1.0468,-0.4309 -1.6624,-0.5541 -0.4926,-0.2462 -1.0467,-0.4309 -1.6622,-0.554 -0.2464,0 -0.5543,0 -0.9236,0 -0.2464,-0.1232 -0.4927,-0.1848 -0.7388,-0.1849 -0.3696,-0.123 -0.7389,-0.1845 -1.1083,-0.1846 -0.2464,1e-4 -0.4926,1e-4 -0.7388,0 -0.1233,1e-4 -0.2464,1e-4 -0.3694,0 -0.1232,1e-4 -0.1848,1e-4 -0.1847,0 -0.1231,1e-4 -0.2463,1e-4 -0.3693,0 -0.1233,1e-4 -0.1849,1e-4 -0.1848,0 -0.1232,0.1233 -0.2464,0.1847 -0.3694,0.1846 -0.1233,1e-4 -0.1848,1e-4 -0.1847,0 -0.1232,1e-4 -0.2464,1e-4 -0.3694,0 -0.1232,1e-4 -0.1849,1e-4 -0.1848,0 -0.1232,1e-4 -0.2463,1e-4 -0.3693,0 -0.1233,1e-4 -0.1849,1e-4 -0.1846,0 -0.1233,1e-4 -0.2465,1e-4 -0.3695,0 -1e-4,1e-4 -1e-4,1e-4 0,0 -1e-4,1e-4 -0.062,0.062 -0.1847,0.1849 -1e-4,0 -1e-4,0 0,0 -0.1233,0 -0.2465,0 -0.3695,0 -10e-5,0 -10e-5,0 0,0 -10e-5,0 -0.062,0 -0.1846,0 -10e-5,0 -10e-5,0 0,0 -0.1233,0 -0.2464,0 -0.3694,0 -1e-4,0 -1e-4,0 0,0 -0.3696,0 -0.7389,0.062 -1.1083,0.1846 -0.2464,0.1232 -0.4926,0.1848 -0.7388,0.1847 -0.1233,0.1233 -0.308,0.1848 -0.5542,0.1847 -0.1231,1e-4 -0.2463,0.062 -0.3693,0.1848 -0.2465,0.1231 -0.4927,0.2463 -0.7389,0.3693 -0.2464,2e-4 -0.4926,2e-4 -0.7388,0 -10e-5,0.1233 -0.062,0.1848 -0.1846,0.1847 -0.1233,10e-5 -0.1849,10e-5 -0.1848,0 -0.1232,0.1232 -0.3079,0.1848 -0.554,0.1848 -0.1233,0 -0.2464,0.062 -0.3695,0.1846 -0.2463,0.1232 -0.4926,0.2463 -0.7388,0.3694 -0.2463,0.1233 -0.4926,0.1848 -0.7388,0.1848 -1e-4,0.1232 -0.062,0.1847 -0.1848,0.1847 -0.1232,0 -0.1847,0.062 -0.1846,0.1847 -0.1232,10e-5 -0.308,0.062 -0.5542,0.1846 -0.1232,1e-4 -0.2464,0.062 -0.3693,0.1849 -0.3696,0.1231 -0.739,0.3694 -1.1083,0.7388 -0.2464,0.2463 -0.4926,0.4925 -0.7388,0.7388 -0.1233,0.1231 -0.2465,0.2463 -0.3694,0.3693 -0.1233,0.1232 -0.1848,0.2464 -0.1847,0.3695 -0.1232,0.1232 -0.2463,0.2463 -0.3694,0.3694 -0.1233,0.1231 -0.1848,0.2463 -0.1847,0.3694 -0.1233,0.1232 -0.2464,0.2463 -0.3695,0.3694 -0.1232,10e-5 -0.1847,10e-5 -0.1846,0 -1e-4,0.1231 -1e-4,0.1847 0,0.1846 -1e-4,1e-4 -1e-4,1e-4 0,0 -0.1233,0.1233 -0.2464,0.2463 -0.3695,0.3695 -0.1231,0 -0.1848,0 -0.1847,0 -10e-5,0.1231 -10e-5,0.2463 0,0.3693 -10e-5,10e-5 -10e-5,10e-5 0,0 -0.1233,0.1233 -0.2463,0.2463 -0.3694,0.3695 -10e-5,0 -10e-5,0 0,0 -0.1232,0.1232 -0.2464,0.2463 -0.3694,0.3694 -1e-4,10e-5 -0.062,0.062 -0.1847,0.1847 -10e-5,1e-4 -0.062,0.062 -0.1847,0.1847 -1e-4,0 -1e-4,0.062 0,0.1848 -0.1232,0 -0.2464,0.062 -0.3694,0.1846 -10e-5,1e-4 -10e-5,0.062 0,0.1847 -0.2464,0.1233 -0.4311,0.3079 -0.5541,0.5541 -0.1232,0.1232 -0.1849,0.308 -0.1848,0.5542 -0.1232,0.1231 -0.2463,0.2463 -0.3693,0.3693 -0.1233,0.1233 -0.1848,0.2465 -0.1848,0.3695 -0.2463,0.3695 -0.4926,0.7388 -0.7388,1.1082 -0.2463,0.2463 -0.4926,0.4926 -0.7388,0.7388 0,0.1233 -0.062,0.3079 -0.1847,0.5541 -1e-4,0.1232 -0.062,0.2463 -0.1847,0.3695 -0.1232,0.2463 -0.2464,0.431 -0.3693,0.5541 -10e-5,0.1232 -10e-5,0.2463 0,0.3694 l 0,41.5586 c -0.1233,0.3694 -0.3696,0.7387 -0.7388,1.108 -0.2464,0.2465 -0.4928,0.4928 -0.7389,0.7389 -0.1232,0.1231 -0.2464,0.2463 -0.3694,0.3694 -0.1233,0.1233 -0.2463,0.2463 -0.3694,0.3694 -0.1232,0.1231 -0.308,0.2463 -0.5542,0.3694 -0.1232,0.1233 -0.2464,0.2465 -0.3694,0.3694 -0.2463,0.2463 -0.5541,0.4926 -0.9235,0.7388 -0.2463,0.1232 -0.5542,0.3079 -0.9235,0.5542 -0.4926,0.2463 -1.0467,0.4925 -1.6623,0.7388 -0.4926,0.2463 -1.0468,0.4926 -1.6625,0.7389 -0.4926,0.1231 -1.0466,0.3077 -1.6622,0.5542 -0.4927,0.1231 -1.0468,0.2461 -1.6624,0.3692 -0.2463,0.1233 -0.4926,0.2463 -0.7388,0.3696 -0.1233,0 -0.2463,0 -0.3694,0 -0.2464,0.1231 -0.4926,0.1846 -0.7388,0.1846 -0.1233,0 -0.2464,0 -0.3695,0 -0.2463,0 -0.4926,0 -0.7388,0 -0.1231,0 -0.2463,0 -0.3693,0 -0.2465,0 -0.4927,0 -0.7389,0 -0.1232,0 -0.2464,0 -0.3694,0 -0.9852,0 -1.9086,-0.062 -2.7706,-0.1846 -0.862,-0.1233 -1.7239,-0.2463 -2.5858,-0.3696 -0.862,-0.2461 -1.7239,-0.4924 -2.5858,-0.7388 -0.7389,-0.3694 -1.4163,-0.8003 -2.0318,-1.2928 -0.8621,-0.3695 -1.6624,-0.8005 -2.4011,-1.2929 -0.6158,-0.6157 -1.1083,-1.1699 -1.4777,-1.6624 -0.4926,-0.6157 -0.8621,-1.2314 -1.1083,-1.8471 -0.2463,-0.7388 -0.431,-1.4776 -0.554,-2.2165 l 0,-49.1314 c -0.1233,-0.123 -0.3079,-0.2462 -0.5541,-0.3693 -0.1233,-0.1232 -0.2463,-0.2463 -0.3695,-0.3695 -0.2463,-0.123 -0.4926,-0.2462 -0.7388,-0.3693 -0.1232,-0.1232 -0.2463,-0.2463 -0.3694,-0.3695 -0.1232,-0.123 -0.308,-0.2462 -0.5542,-0.3693 -0.1231,-0.1232 -0.2463,-0.2464 -0.3693,-0.3695 -0.1233,-0.1231 -0.3079,-0.2462 -0.5541,-0.3694 -0.1232,-0.1231 -0.2463,-0.2463 -0.3695,-0.3694 -0.2463,-0.1231 -0.4925,-0.1848 -0.7388,-0.1848 -0.1232,-0.123 -0.3079,-0.2462 -0.5541,-0.3694 -0.1232,10e-5 -0.3079,10e-5 -0.5541,0 -0.1231,-0.1231 -0.2463,-0.2462 -0.3694,-0.3694 -0.4926,-0.2462 -0.9236,-0.3693 -1.2929,-0.3694 -0.3695,-0.1231 -0.6773,-0.2462 -0.9235,-0.3694 -0.1233,0 -0.2464,0 -0.3695,0 -0.1231,0 -0.2463,-0.062 -0.3693,-0.1846 -1e-4,0 -0.062,0 -0.1849,0 -0.1231,0 -0.1846,0 -0.1846,0 -0.1231,0 -0.2463,0 -0.3693,0 -0.1233,0 -0.2465,-0.062 -0.3695,-0.1849 0,1e-4 -0.062,1e-4 -0.1847,0 -0.1232,1e-4 -0.1848,1e-4 -0.1847,0 -0.1232,1e-4 -0.2464,1e-4 -0.3694,0 -0.1232,1e-4 -0.1849,1e-4 -0.1847,0 -2e-4,1e-4 -0.062,1e-4 -0.1847,0 -1e-4,1e-4 -1e-4,1e-4 0,0 -1e-4,1e-4 -0.062,1e-4 -0.1848,0 0,-0.123 0,-0.1845 0,-0.1846 0,1e-4 -0.062,1e-4 -0.1846,0 0,1e-4 0,1e-4 0,0 -0.1232,1e-4 -0.2463,1e-4 -0.3694,0 -1e-4,1e-4 -1e-4,1e-4 0,0 -1e-4,1e-4 -1e-4,1e-4 0,0 -1e-4,1e-4 -1e-4,1e-4 0,0 -0.1233,1e-4 -0.1848,1e-4 -0.1848,0 0,1e-4 0,1e-4 0,0 -0.1232,1e-4 -0.2463,1e-4 -0.3694,0 -0.1231,1e-4 -0.1847,1e-4 -0.1846,0 -0.1233,1e-4 -0.2463,1e-4 -0.3695,0 0,1e-4 0,1e-4 0,0 0,1e-4 -0.062,0.062 -0.1847,0.1846 -1e-4,1e-4 -1e-4,1e-4 0,0 -0.1232,1e-4 -0.2463,1e-4 -0.3695,0 0,1e-4 0,1e-4 0,0 0,1e-4 -0.062,1e-4 -0.1846,0 0,1e-4 0,1e-4 0,0 -0.1232,1e-4 -0.2463,1e-4 -0.3694,0 -1e-4,1e-4 -1e-4,1e-4 0,0 -1e-4,1e-4 -0.062,1e-4 -0.1848,0 0,1e-4 0,1e-4 0,0 -0.1231,1e-4 -0.2463,1e-4 -0.3694,0 0,1e-4 0,1e-4 0,0 -0.1231,1e-4 -0.1847,1e-4 -0.1846,0 -1e-4,1e-4 -1e-4,1e-4 0,0 -0.1232,0.1233 -0.2463,0.1849 -0.3694,0.1849 -0.1232,0 -0.1848,0 -0.1848,0 -0.1231,0 -0.2463,0 -0.3694,0 -0.1232,0 -0.1847,0 -0.1847,0 -0.7388,0.1231 -1.4161,0.3078 -2.0317,0.554 -0.4926,0.1232 -1.0467,0.3079 -1.6624,0.5541 -0.4925,0.1233 -1.0467,0.3695 -1.6623,0.7389 -0.4926,0.2463 -1.0466,0.4926 -1.6623,0.7388 -0.4926,0.2463 -1.0467,0.5541 -1.6624,0.9234 -0.4926,0.2465 -0.9235,0.5543 -1.2929,0.9237 -0.2463,0.1231 -0.4926,0.3078 -0.7388,0.554 -0.1232,0.1232 -0.3079,0.2463 -0.5542,0.3694 -0.1231,0.2463 -0.3078,0.4311 -0.554,0.5542 -0.1232,0.1232 -0.2463,0.3078 -0.3694,0.554 -0.1232,0.1233 -0.2464,0.2463 -0.3694,0.3695 -0.1233,0 -0.1848,0 -0.1848,0 0,0.1231 0,0.2463 0,0.3693 0,10e-5 0,10e-5 0,0 0,10e-5 0,10e-5 0,0 0,10e-5 0,10e-5 0,0 0,0.1233 0,0.1849 0,0.1848 0,10e-5 0,10e-5 0,0 0,10e-5 0,10e-5 0,0 0,10e-5 0,10e-5 0,0 -0.1232,0.1232 -0.2463,0.2464 -0.3694,0.3694 0,0 0,0 0,0 0,0 0,0 0,0 0,0 0,0 0,0 0,0 -0.062,0.062 -0.1846,0.1847 -1e-4,10e-5 -1e-4,0.062 0,0.1847 -0.1233,1e-4 -0.2463,0.062 -0.3695,0.1847 0,0 0,0.062 0,0.1848 0,0 -0.062,0.062 -0.1847,0.1846 0,1e-4 0,0.062 0,0.1847 -0.1232,10e-5 -0.2463,0.062 -0.3695,0.1847 0,0 0,0.062 0,0.1848 0,0 -0.062,0.062 -0.1846,0.1846 0,10e-5 0,0.062 0,0.1847 0,1e-4 -0.062,1e-4 -0.1847,0 0,1e-4 0,1e-4 0,0 0,0.1233 -0.062,0.2464 -0.1847,0.3695 -1e-4,0 -1e-4,0.062 0,0.1846 -0.1232,0.1232 -0.1848,0.2463 -0.1848,0.3695 0,0.1231 0,0.2463 0,0.3693 -0.1232,0.1232 -0.2463,0.2463 -0.3694,0.3695 0,0 0,0.062 0,0.1847 -0.1231,0.1232 -0.2463,0.2463 -0.3694,0.3694 0,10e-5 -0.062,0.062 -0.1846,0.1847 0,0 -0.062,0.062 -0.1848,0.1848 0,0.1231 0,0.1847 0,0.1846 -0.1231,0.1231 -0.2463,0.2463 -0.3694,0.3694 0,0.1232 0,0.2464 0,0.3694 0,10e-5 0,0.062 0,0.1847 0,10e-5 0,10e-5 0,0 -0.1232,0.1233 -0.1847,0.2463 -0.1847,0.3695 0,0 0,0 0,0 0,0.1231 0,0.2463 0,0.3694 0,10e-5 0,10e-5 0,0 -0.1231,0.1232 -0.2463,0.2463 -0.3693,0.3694 -1e-4,0.1232 -1e-4,0.1846 0,0.1846 -1e-4,0.1232 -1e-4,0.2463 0,0.3695 -1e-4,0 -1e-4,0.062 0,0.1847 l -0.7388,43.9597 c -0.2464,0.1231 -0.4927,0.2463 -0.7389,0.3694 -0.1231,0.1231 -0.308,0.2462 -0.5542,0.3694 -0.2463,0.1232 -0.4926,0.2463 -0.7388,0.3695 -0.1231,0 -0.3078,0.062 -0.5541,0.1847 -0.1231,0.123 -0.3078,0.2463 -0.5541,0.3692 -0.2463,0 -0.431,0.062 -0.554,0.1849 -0.2464,0.123 -0.4927,0.2462 -0.7389,0.3693 -0.1231,0 -0.3078,0.062 -0.5542,0.1847 -0.2463,0.1231 -0.4925,0.2464 -0.7388,0.3694 -0.2463,0 -0.4925,0.062 -0.7388,0.1848 -0.3695,0.1231 -0.6772,0.2463 -0.9234,0.3694 -0.2464,0 -0.4927,0 -0.7389,0 -0.3694,0 -0.7388,0.062 -1.1082,0.1848 -0.2463,0.1231 -0.4926,0.1846 -0.7389,0.1846 -0.1231,0 -0.3079,0.062 -0.5541,0.1846 -0.1231,0 -0.2463,0 -0.3694,0 0,0 -0.062,0 -0.1846,0 0,0 -0.062,0 -0.1848,0 -0.1231,0.1233 -0.2463,0.1848 -0.3694,0.1848 0,0 0,0 0,0 -0.1232,0 -0.2463,0 -0.3694,0 -0.1231,0 -0.1847,0 -0.1846,0 -0.2463,0.1231 -0.4926,0.1848 -0.7388,0.1848 -0.1232,0 -0.1849,0 -0.1849,0 0,0 -0.062,0 -0.1846,0 0,0 -0.062,0 -0.1847,0 -0.1232,0 -0.2463,0 -0.3695,0 0,0 0,0 0,0 -0.2462,0.1231 -0.5541,0.1846 -0.9234,0.1846 -0.2464,0 -0.4926,0 -0.7389,0 -0.2463,0 -0.4925,0 -0.7388,0 -0.1231,0 -0.2463,0 -0.3693,0 -0.1232,0 -0.2464,0 -0.3695,0 -0.1232,0 -0.1847,0 -0.1847,0 0,0 0,0 0,0 0,0 0,0 0,0 -0.1232,0 -0.2463,0 -0.3695,0 -0.1232,0 -0.1846,0 -0.1846,0 0,0 -0.062,0 -0.1848,0 0,0 0,0 0,0 0,0 -0.062,0 -0.1846,0 0,0 0,0 0,0 -0.4926,0 -1.0467,0 -1.6625,0 -0.4925,-0.1232 -1.0466,-0.2463 -1.6622,-0.3694 -0.3694,-0.1231 -0.7388,-0.1848 -1.1082,-0.1848 -0.2463,-0.1231 -0.4926,-0.2461 -0.7388,-0.3692 -0.1232,-0.1232 -0.3079,-0.1848 -0.5542,-0.1848 -0.1232,-0.1231 -0.2463,-0.2463 -0.3694,-0.3694 -0.4926,-0.2463 -1.0467,-0.4926 -1.6624,-0.7389 -0.4925,-0.2463 -0.8618,-0.5542 -1.1081,-0.9234 -0.3695,-0.3696 -0.6774,-0.7388 -0.9236,-1.1084 -0.2463,-0.3694 -0.4926,-0.8003 -0.7388,-1.2928 l 0,-62.9843 c 0.2462,-0.6156 0.5541,-1.1082 0.9236,-1.4777 0.3693,-0.4925 0.8002,-0.985 1.2929,-1.4776 0.4925,-0.3694 0.985,-0.7387 1.4776,-1.1082 0.6157,-0.3694 1.2313,-0.6771 1.847,-0.9236 0.6157,-0.2462 1.2313,-0.4309 1.8471,-0.554 0.7387,-0.2462 1.5392,-0.431 2.4012,-0.5541 0.6157,-0.1231 1.2928,-0.1848 2.0316,-0.1848 0.862,-0.123 1.724,-0.1846 2.5859,-0.1847 0.1232,10e-5 0.1848,10e-5 0.1848,0 0.1231,10e-5 0.2463,10e-5 0.3694,0 -1e-4,10e-5 -1e-4,10e-5 0,0 0.1231,10e-5 0.2462,10e-5 0.3694,0 0,10e-5 0,10e-5 0,0 0.1231,10e-5 0.2463,10e-5 0.3695,0 0.123,10e-5 0.1846,10e-5 0.1846,0 0.123,10e-5 0.1847,10e-5 0.1847,0 0.1232,10e-5 0.1846,10e-5 0.1846,0 0.1232,10e-5 0.2464,10e-5 0.3695,0 0,10e-5 0,10e-5 0,0 0.1231,10e-5 0.2462,10e-5 0.3694,0 0.1231,10e-5 0.2463,10e-5 0.3694,0 0.2462,10e-5 0.4925,10e-5 0.7388,0 0,10e-5 0.062,10e-5 0.1848,0 0.1231,10e-5 0.2462,10e-5 0.3693,0 0,10e-5 0.062,10e-5 0.1848,0 0.123,10e-5 0.2462,10e-5 0.3693,0 0,0.1233 0.062,0.1847 0.1848,0.1847 0.1231,0 0.2463,0 0.3694,0 0,0 0.062,0 0.1846,0 0.1232,0 0.2464,0 0.3695,0 -1e-4,0 0.062,0 0.1847,0 0.1232,0 0.2462,0 0.3694,0 0,0 0.062,0 0.1847,0 0.1231,0 0.2462,0 0.3694,0 0,0.1232 0,0.1849 0,0.1848 0,10e-5 0.062,10e-5 0.1847,0 0,10e-5 0,10e-5 0,0 0.1232,10e-5 0.2463,10e-5 0.3695,0 0,10e-5 0,10e-5 0,0 0.123,10e-5 0.1846,10e-5 0.1846,0 0.1232,0.1231 0.2463,0.2463 0.3695,0.3693 0.2462,1e-4 0.4925,0.062 0.7388,0.1848 0.123,0.1231 0.2462,0.2463 0.3693,0.3693 0.2464,1e-4 0.4311,0.062 0.5542,0.1847 0.1231,0.1233 0.2462,0.2465 0.3694,0.3695 0.2463,0.1232 0.4309,0.1847 0.5541,0.1846 0.2462,0.1233 0.431,0.2463 0.5542,0.3695 0.2462,0.1232 0.4925,0.2463 0.7388,0.3694 0.123,0.1232 0.2462,0.2463 0.3694,0.3694 0.2463,0.1232 0.4309,0.2463 0.554,0.3694 0.1232,0.1232 0.2462,0.2463 0.3694,0.3694 0.2463,0.1232 0.431,0.2463 0.5542,0.3694 0.1231,0.1233 0.2463,0.2463 0.3695,0.3695 0.2462,0.1231 0.4925,0.1847 0.7388,0.1847 -1e-4,0.1231 -1e-4,0.1847 0,0.1846 0.123,1e-4 0.2462,0.062 0.3693,0.1847 0.1232,2e-4 0.2463,0.062 0.3695,0.1848 0.123,0 0.2462,0.062 0.3694,0.1847 0.1231,0 0.2463,0 0.3694,0 0.2462,-0.123 0.4308,-0.1847 0.554,-0.1847 0.2463,-0.1232 0.4925,-0.1846 0.7388,-0.1848 0.3695,-0.123 0.7388,-0.2462 1.1083,-0.3693 0.2462,-0.1231 0.4925,-0.1847 0.7388,-0.1847 0.2462,-0.1232 0.5541,-0.2462 0.9236,-0.3695 0.2462,-0.1231 0.4925,-0.1846 0.7388,-0.1846 0.2462,-0.1231 0.4925,-0.2462 0.7388,-0.3695 0.3694,-0.123 0.8003,-0.2462 1.2929,-0.3694 0.4925,-0.123 0.9851,-0.2462 1.4777,-0.3694 0.2462,-0.1231 0.4925,-0.1846 0.7388,-0.1847 0.3693,-0.1231 0.6772,-0.2462 0.9235,-0.3694 0.2462,0 0.4926,0 0.7389,0 0.3693,-0.1232 0.6771,-0.2462 0.9234,-0.3695 0.3694,-0.123 0.8004,-0.2462 1.293,-0.3693 0.4925,-0.1232 0.985,-0.2462 1.4777,-0.3695 0.2462,-0.123 0.4925,-0.1845 0.7388,-0.1846 0.3693,-0.1231 0.6771,-0.2462 0.9234,-0.3695 0.2462,1e-4 0.4925,1e-4 0.7388,0 0.3694,-0.123 0.6773,-0.2462 0.9236,-0.3693 0.3694,-0.1231 0.8003,-0.2462 1.2929,-0.3695 0.4925,-0.123 0.985,-0.2462 1.4777,-0.3694 0.2462,-0.123 0.4925,-0.1847 0.7388,-0.1847 0.2462,-0.123 0.4925,-0.2462 0.7388,-0.3694 0.2462,10e-5 0.4925,10e-5 0.7388,0 0.2462,-0.1231 0.4925,-0.2462 0.7388,-0.3694 l 8.6811,0 c 0.9851,0.3695 1.9702,0.7388 2.9553,1.1082 0.985,0.2464 2.0316,0.4926 3.1399,0.7388 0.7389,0.2464 1.4161,0.4926 2.0319,0.7388 0.7387,0.1233 1.4159,0.308 2.0317,0.5542 0.3694,0.1232 0.6772,0.2463 0.9235,0.3694 0.3694,10e-5 0.7388,0.062 1.1082,0.1847 0.3694,0.1232 0.6772,0.2463 0.9236,0.3694 0.3693,0.1232 0.6772,0.2463 0.9235,0.3694 0.2462,0 0.4309,0.062 0.5541,0.1847 0.1231,2e-4 0.2462,2e-4 0.3694,0 0.4925,0.2464 0.985,0.431 1.4776,0.5541 0.4925,0.1232 0.9236,0.3079 1.293,0.5541 0.8619,0.3695 1.7239,0.739 2.5858,1.1083 0.9851,0.3695 1.9702,0.7388 2.9553,1.1082 l 6.28,-0.3694 22.1646,-7.5729 c 0.123,0 0.1845,0.062 0.1846,0.1847 0.123,10e-5 0.2462,10e-5 0.3694,0 -10e-5,10e-5 -10e-5,10e-5 0,0 0.123,10e-5 0.2461,10e-5 0.3694,0 0.123,10e-5 0.2462,10e-5 0.3696,0 0.246,10e-5 0.4923,10e-5 0.7387,0 0.1229,10e-5 0.2461,10e-5 0.3693,0 0.2462,10e-5 0.4924,10e-5 0.7389,0 0.123,10e-5 0.3077,10e-5 0.5542,0 0.2461,-0.123 0.4924,-0.2462 0.7388,-0.3694 0.123,10e-5 0.1845,10e-5 0.1846,0 -10e-5,10e-5 0.062,10e-5 0.1847,0 0.1231,10e-5 0.2462,10e-5 0.3695,0 0.123,10e-5 0.2461,10e-5 0.3693,0 0.1231,10e-5 0.1846,10e-5 0.1849,0 -3e-4,10e-5 0.062,10e-5 0.1846,0 0.1231,10e-5 0.2461,10e-5 0.3694,0 0.123,10e-5 0.2462,10e-5 0.3694,0 -1e-4,10e-5 -1e-4,10e-5 0,0 0.1231,10e-5 0.2461,10e-5 0.3694,0 -10e-5,10e-5 -10e-5,10e-5 0,0 0.123,10e-5 0.1845,10e-5 0.1847,0 -2e-4,10e-5 -2e-4,10e-5 0,0 0.123,10e-5 0.2461,10e-5 0.3694,0 -10e-5,10e-5 -10e-5,10e-5 0,0 0.123,-0.1231 0.1846,-0.1847 0.1847,-0.1848 -1e-4,10e-5 -1e-4,10e-5 0,0 0.1231,10e-5 0.2462,10e-5 0.3695,0 -10e-5,10e-5 0.062,10e-5 0.1846,0 0.1231,10e-5 0.2462,10e-5 0.3694,0 l 2.9552,-0.3693 0,0 0,0 0,0"
       style="font-size:165.72451782px;font-style:normal;font-variant:normal;font-weight:normal;font-stretch:normal;text-indent:0;text-align:center;text-decoration:none;line-height:100%;letter-spacing:normal;word-spacing:normal;text-transform:none;direction:ltr;block-progression:tb;writing-mode:lr-tb;text-anchor:middle;color:#000000;fill:#f57900;fill-opacity:1;fill-rule:nonzero;stroke:none;stroke-width:12.60000038;marker:none;visibility:visible;font-family:Abbey Medium Extended;-inkscape-font-specification:Abbey Medium Extended"
       id="path4118"
       inkscape:connector-curvature="0"
       inkscape:export-filename="D:\for-torhu\mb_icon_16x16.png"
       inkscape:export-xdpi="90"
       inkscape:export-ydpi="90" />
    <path
       style="fill:#28ff28;fill-opacity:0;fill-rule:evenodd;stroke:none"
       d="m 172.24623,279.95408 c -2.93062,-3.0926 -3.37983,-4.0728 -4.6589,-10.1663 -0.30046,-1.4314 -0.63837,-2.7515 -0.75091,-2.9336 -0.11254,-0.1821 -0.0261,-1.0792 0.1921,-1.9936 0.2182,-0.9145 0.52926,-3.5718 0.69125,-5.9053 0.74092,-10.6729 5.09029,-25.1708 10.8241,-36.0802 2.41932,-4.6031 7.08697,-11.4907 9.4164,-13.8948 2.42525,-2.5029 5.20226,-4.3088 6.99592,-4.5494 0.7996,-0.1072 1.53887,-0.3326 1.64284,-0.5008 0.504,-0.8155 8.46726,-0.048 11.5788,1.1166 2.55659,0.9566 7.89218,4.4542 10.40636,6.8218 4.46143,4.2012 13.90891,16.7941 18.05886,24.0712 2.44003,4.2788 6.9341,10.5772 8.20276,11.4962 2.51569,1.8224 4.57761,2.6754 5.33054,2.2052 0.35972,-0.2247 0.89801,-0.4085 1.19619,-0.4085 0.29819,0 1.17223,-0.3977 1.94232,-0.8839 0.77009,-0.4861 1.52265,-0.8855 1.67235,-0.8875 0.56843,-0.01 3.2774,-3.9563 3.2774,-4.7772 0,-0.2787 0.38548,-1.3456 0.85663,-2.3708 0.47114,-1.0252 1.21098,-3.1368 1.64409,-4.6924 0.43311,-1.5556 1.33892,-4.1012 2.01291,-5.6569 0.674,-1.5556 2.22217,-5.2149 3.44038,-8.1317 8.04426,-19.2608 12.12589,-25.4991 19.2696,-29.4514 5.19764,-2.8756 11.34301,-3.5126 16.26345,-1.6858 5.81568,2.1592 8.85869,4.568 12.80843,10.1386 2.04224,2.8804 5.15898,9.0641 6.77193,13.4356 3.47261,9.4119 4.2569,14.4482 4.26095,27.362 l 0.003,9.1924 -1.31683,5.0254 c -1.40947,5.3793 -3.56283,10.809 -6.20946,15.6575 -2.1103,3.8659 -5.74564,7.5872 -8.92241,9.1334 -4.7809,2.327 -0.0491,2.1803 -70.33409,2.1803 l -63.85076,0 -2.71603,-2.8661 0,0 z m 46.89147,-8.2017 c 2.41118,-1.8391 2.35736,-1.3471 2.35736,-21.5454 l 0,-18.1873 -0.81415,-1.5396 c -0.55646,-1.0523 -1.30141,-1.7972 -2.3537,-2.3537 -3.55077,-1.8777 -7.45516,-0.2152 -8.79889,3.7465 -0.49942,1.4724 -0.56167,34.1237 -0.0691,36.2474 1.03412,4.4588 6.10148,6.3604 9.6785,3.6321 z m 63.28606,0 c 0.65845,-0.5022 1.49799,-1.5187 1.86565,-2.2589 0.62927,-1.2669 0.66848,-2.4034 0.66848,-19.377 0,-17.9478 -0.004,-18.038 -0.7845,-19.4982 -2.71147,-5.0703 -10.17964,-3.914 -11.42347,1.7687 -0.27436,1.2535 -0.3622,7.1543 -0.28234,18.9669 l 0.11594,17.1474 0.82042,1.3195 c 2.08154,3.3477 6.04917,4.1974 9.01982,1.9316 z"
       id="path4136"
       inkscape:connector-curvature="0"
       inkscape:export-filename="D:\for-torhu\mb_icon_16x16.png"
       inkscape:export-xdpi="90"
       inkscape:export-ydpi="90" />
    <path
       style="fill:#ffffff;fill-opacity:1;fill-rule:evenodd;stroke:none"
       d="m 294.46193,189.92558 c -14.67965,0.6476 -21.24469,16.1987 -26.53608,27.6379 -4.81624,9.5465 -6.88164,20.7669 -12.99517,29.4246 -2.95695,3.2401 -7.98906,3.5074 -10.53125,-0.4375 -10.82562,-13.3049 -18.1656,-30.5549 -33.1875,-39.8438 -8.53891,-5.1451 -20.99225,-3.6699 -26.03125,5.6563 -11.30781,16.876 -19.5826,37.513 -17.3125,58.1562 1.32544,5.5079 4.48485,14.1518 11.62496,12.1663 42.42573,-0.2078 84.86183,-0.3139 127.28129,-0.5413 16.15481,-8.9906 19.61469,-29.6654 18.78125,-46.6562 -0.60257,-16.1387 -6.42945,-34.2888 -20.53125,-43.1875 -3.2225,-1.7174 -6.90468,-2.617 -10.5625,-2.375 z m -78.21875,37.8437 c 7.31425,0.8053 4.31655,10.3556 5.25,15.25 -0.51212,8.8941 1.64656,18.6031 -1.40625,27.0313 -2.7674,4.3551 -9.53858,2.7222 -10.375,-2.3125 -0.67348,-12.1235 -1.24577,-24.5907 0.375,-36.625 1.00852,-2.1897 3.65261,-3.6181 6.15625,-3.3438 z m 62.125,0 c 6.87872,-0.086 6.6032,8.2613 6.38879,13.1874 -0.45568,9.6255 1.23206,19.7576 -1.17004,29.0939 -3.31181,5.1539 -12.84456,1.7243 -10.90625,-4.5313 0.67912,-11.6253 -1.43488,-23.7627 1.3125,-35.0937 1.01281,-1.4188 2.56727,-2.5467 4.375,-2.6563 z"
       id="path4174"
       inkscape:connector-curvature="0"
       inkscape:export-filename="D:\for-torhu\mb_icon_16x16.png"
       inkscape:export-xdpi="90"
       inkscape:export-ydpi="90" />
    <path
       style="fill:#fffeff;fill-opacity:1;fill-rule:evenodd;stroke:none"
       d="m 295.40097,189.35128 c -5.12592,0.1321 -10.08756,2.2842 -14.03165,5.4856 -2.98303,2.8183 -5.66346,6.0124 -7.43014,9.7448 -1.57804,2.9946 -3.24418,5.9107 -4.43994,9.0797 -3.03671,6.4244 -5.72103,13.0017 -8.27407,19.6312 -0.2805,0.6293 -0.22609,1.3383 -0.62159,1.8991 0.0357,0.5897 -0.4312,0.9727 -0.46403,1.5523 -0.77777,1.2729 -1.10364,2.7938 -1.88972,4.0921 -1.27014,2.3655 -2.33209,5.0379 -4.39138,6.8405 -0.92558,0.7602 -2.04783,1.1118 -3.18751,1.3589 -1.42064,0.5906 -2.98715,0.028 -4.17082,-0.801 -1.97384,-1.225 -3.07745,-3.4346 -4.55863,-5.1796 -3.05921,-4.0183 -5.7752,-8.3025 -8.36404,-12.6274 -4.35105,-6.2225 -8.91281,-12.3455 -13.984,-18.0103 -3.60903,-3.3136 -7.62832,-6.4297 -12.33524,-7.9821 -3.30712,-0.9435 -6.81932,-0.9054 -10.22794,-0.8201 -0.5936,0.303 -1.17871,0.5733 -1.90035,0.464 -0.50207,-0.1058 -0.84152,0.2128 -1.22639,0.3425 -1.86945,0.5198 -3.41674,1.8918 -4.91108,3.1102 -3.72971,3.3294 -6.08784,7.7957 -8.85541,11.8827 -1.14282,1.7459 -1.82355,3.7244 -2.96419,5.4662 -3.24727,6.6201 -5.59016,13.6574 -7.59822,20.7409 -1.00784,4.9557 -2.15513,9.9378 -2.30562,15.03 -0.0736,1.8475 -0.39056,3.6703 -0.68853,5.4706 0.29961,1.8121 0.80863,3.5749 1.10485,5.3862 0.78317,2.5709 1.03362,5.5417 3.19303,7.408 1.09446,1.2421 2.08497,2.6123 3.46372,3.5411 0.92127,1.0138 2.52282,0.34 3.71231,0.5449 39.43035,0.022 78.86102,0.031 118.29119,-0.092 3.27887,-0.098 6.62901,0.1714 9.82772,-0.6294 1.93521,-0.2577 3.47865,-1.7079 5.10573,-2.6976 2.30709,-1.5934 4.51183,-3.4526 5.84709,-5.9717 3.23384,-5.4044 5.85857,-11.2113 7.27164,-17.3758 0.80965,-3.012 1.64014,-6.0439 1.51376,-9.1942 0.13911,-6.7824 0.30171,-13.6121 -0.89023,-20.3215 -1.54559,-9.0676 -4.79769,-17.8995 -9.89625,-25.5635 -2.41215,-3.1975 -5.01053,-6.4651 -8.45455,-8.5899 -2.66701,-1.2377 -5.40154,-2.5294 -8.30851,-3.0881 -0.98147,-0.1226 -1.97283,-0.154 -2.96101,-0.127 z m -79.93069,38.6533 c 2.20229,-0.1915 4.40268,1.1216 5.08233,3.2593 0.70056,2.2683 0.43995,4.7688 0.61577,7.1318 0.12893,8.5276 0.27659,17.0625 0.0361,25.5885 -0.22027,2.2293 -0.47475,4.6059 -1.707,6.5297 -2.34433,2.9885 -7.62637,2.1069 -9.11505,-1.2982 -0.91609,-2.499 -0.55233,-5.2842 -0.71618,-7.9108 -0.0104,-8.6226 -0.16677,-17.2508 0.10299,-25.8701 0.27814,-1.7863 0.0718,-3.8438 1.19324,-5.3531 1.10982,-1.3502 2.78229,-2.0484 4.5078,-2.0771 z m 63.728,0.072 c 2.46576,-0.065 4.28877,2.2081 4.81164,4.425 0.79937,2.8294 0.37206,5.8352 0.5262,8.7394 -0.0271,7.7601 0.2837,15.5335 -0.16712,23.2848 -0.25876,1.9634 -0.40361,4.0246 -1.23744,5.8226 -1.77933,2.3089 -5.41362,2.5005 -7.81684,1.0661 -1.33635,-0.856 -2.47813,-2.2729 -2.27048,-3.9553 -0.19173,-9.2431 -0.25571,-18.493 -0.11082,-27.7372 0.078,-3.0353 0.47148,-6.0946 1.19358,-9.0269 0.97787,-1.5422 2.64947,-2.8955 4.59067,-2.624 0.16021,0 0.32041,0 0.48061,0.01 z"
       id="path4182"
       inkscape:connector-curvature="0"
       inkscape:export-filename="D:\for-torhu\mb_icon_16x16.png"
       inkscape:export-xdpi="90"
       inkscape:export-ydpi="90" />
  </g>
</svg>
